<?xml version="1.0" encoding="utf-8"?>
<!-- Generator: Adobe Illustrator 27.0.0, SVG Export Plug-In . SVG Version: 6.00 Build 0)  -->
<svg version="1.1" id="Layer_1" xmlns="http://www.w3.org/2000/svg" xmlns:xlink="http://www.w3.org/1999/xlink" x="0px" y="0px"
	 viewBox="0 0 283 109" style="enable-background:new 0 0 283 109;" xml:space="preserve">
<style type="text/css">
	.st0{fill:#1F293A;}
</style>
<path class="st0" d="M26.8,109h-2.5c-0.9,0-1.6-0.1-2.2-0.2c-1-0.1-2.8-0.5-5.2-1.2c-2.4-0.7-5-1.6-7.6-2.7
	c-2.6-1.1-4.8-2.3-6.6-3.8C0.9,99.8,0,98.3,0,96.7c0-0.7,0.4-1,1.2-1c2,0,4,0.5,6,1.6c2,1,4.2,1.7,6.4,1.9c0.9,0.1,1.9,0.2,3,0.3
	c1.1,0.1,2.4,0.1,3.7,0.1c2.9,0,5.9-0.3,9.1-0.8s5.8-1.5,8-2.9c2.2-1.4,3.4-3.4,3.5-5.9c0-1.6-1-3.7-3.1-6.2
	c-2.1-2.5-4.7-5.4-7.9-8.7s-6.4-7-9.5-11c-3.1-4-5.8-8.3-7.9-13c-2.1-4.6-3.2-9.5-3.2-14.5c0-6.3,1.5-11.7,4.5-16.4s7-8.4,11.8-11.4
	c4.9-3,10.2-5.2,16-6.6S53.1,0,58.7,0c2.8,0,5.4,0.2,7.8,0.5c3.1,0.4,6.5,1.1,10.2,2.3s6.8,3.1,9.5,5.6c2.7,2.5,4,5.8,4,9.8
	c0,4.3-1.4,8.4-4.1,12.4c-2.7,4-6,7.4-9.9,10.4s-7.7,5.2-11.4,6.7c-0.7,0.3-1.4,0.5-2.1,0.5c-0.6-0.2-0.9-0.5-0.9-0.9
	c0.6-1.3,2-3,4.3-5.3c2.3-2.3,4.8-4.8,7.5-7.6c2.7-2.8,5.1-5.8,7.1-9c2-3.2,3.1-6.4,3.1-9.5c0-2.1-0.8-3.7-2.3-4.8
	c-1.5-1.1-3.3-1.9-5.3-2.5c-2-0.6-3.8-1-5.3-1.2c-0.7-0.1-1.4-0.2-2.1-0.2h-2.3c-5.2,0-10.8,0.9-16.8,2.7s-11.6,4.3-17,7.6
	s-9.7,7.1-13.1,11.6c-3.4,4.5-5.1,9.4-5.1,14.9c0,3.2,1.2,6.7,3.5,10.4c2.3,3.7,5.2,7.4,8.7,11.2s7,7.6,10.5,11.4s6.4,7.4,8.7,11
	c2.3,3.5,3.5,6.8,3.5,9.8s-1.2,5.2-3.7,6.8c-2.5,1.6-5.5,2.8-9.1,3.4S29.9,109,26.8,109L26.8,109z"/>
<path class="st0" d="M100.5,104.7c-1,0-2.2-0.5-3.6-1.4c-1.3-0.9-2.5-2-3.4-3.2s-1.4-2.3-1.4-3.4c0-1.7,0.6-4.1,1.9-7.1
	s2.8-5.9,4.4-8.8s3-5.1,3.9-6.4c-1.6,1.4-3.7,3.6-6.2,6.7c-2.5,3.1-5.2,6.3-8,9.8c-2.8,3.4-5.6,6.4-8.2,8.8
	c-2.6,2.4-4.8,3.7-6.7,3.7c-2.6,0-4.6-0.9-6.2-2.7c-1.6-1.8-2.3-4-2.3-6.5c0-3.5,1-7.2,3-11.2c2-4,4.6-7.9,7.8-11.7
	c3.2-3.8,6.7-7.2,10.4-10.4s7.5-5.6,11.2-7.5c3.7-1.9,6.9-2.8,9.8-2.8c3.1,0,5.7,0.7,7.7,2.2s3,3.6,3,6.5c0,0.5-0.1,1.3-0.3,2.6
	c-0.2,1.3-0.6,1.9-1.3,1.9c-0.3,0-0.9-0.5-1.7-1.6c-0.8-1-1.8-2.1-3.1-3.1c-1.3-1-2.9-1.6-4.9-1.6c-3.2,0-6.7,1.2-10.2,3.6
	s-6.9,5.4-10.2,9.1c-3.2,3.7-6.1,7.4-8.5,11.2c-2.4,3.8-4.3,7.1-5.6,9.9c-0.3,0.8-0.7,1.7-1,2.6s-0.4,1.9-0.4,2.8
	c0,1,0.3,1.6,0.9,1.6s1.8-0.6,3.7-1.9c1.9-1.3,3.3-2.2,4.1-2.8c4.1-2.9,7.9-6.2,11.6-9.9c3.7-3.7,6.9-7.6,9.8-11.5
	c0.9-1.3,1.8-2.6,2.6-3.8s1.6-2.5,2.4-3.7c0.6-0.8,1.2-1.2,1.7-1.2c1.3,0,2.5,0.9,3.7,2.6s1.8,3.2,1.8,4.5c0,0.6-0.1,0.9-0.3,1
	c-0.2,0.1-0.6,0.5-1.1,1c-1.7,1.7-3.5,4.2-5.1,7.3s-3.1,6.3-4.3,9.5c-1.2,3.2-2.1,5.9-2.7,8.1c-0.1,0.3-0.2,0.8-0.3,1.3
	c-0.1,0.5,0.2,0.7,0.8,0.6c1.2-0.3,3.1-1.7,5.7-3.9s5.5-4.9,8.5-7.8c3.1-3,5.9-5.7,8.4-8.3s4.2-4.3,5-5.4c0.2-0.2,0.5-0.5,0.8-0.8
	c0.3-0.3,0.6-0.4,1-0.4c0.8,0,1.2,0.4,1.2,1.2c0,0.5-0.9,1.8-2.8,4.1c-1.9,2.3-4.2,4.9-7,7.8s-5.6,5.9-8.5,8.7s-5.4,5.2-7.6,7.1
	C102.4,103.7,101,104.7,100.5,104.7L100.5,104.7z"/>
<path class="st0" d="M153.8,104.7c-1,0-2.2-0.4-3.6-1.3c-1.3-0.9-2.5-1.9-3.6-3.1c-1-1.2-1.6-2.3-1.6-3.4c0-1.4,0.5-3.2,1.4-5.4
	c0.9-2.2,2.1-4.6,3.5-7.1c1.4-2.5,2.8-4.8,4.1-6.9s2.4-3.7,3.1-4.9c-0.9,1.2-2.4,2.9-4.4,5.3c-2,2.4-4.1,5-6.5,7.8s-4.8,5.6-7.3,8.2
	c-2.5,2.6-4.8,4.8-6.9,6.4c-2.1,1.7-3.8,2.5-5.1,2.5c-0.8,0-2.2-0.8-4.1-2.3c-1.9-1.6-2.9-4-2.9-7.2c0-2.7,0.8-5.9,2.5-9.8
	c1.7-3.8,3.9-7.8,6.7-11.9c2.8-4.1,5.8-8,9.1-11.6c3.3-3.6,6.6-6.5,9.9-8.7c3.3-2.2,6.3-3.3,9-3.3c2.1,0,4.1,0.7,6.1,2
	c2,1.3,3.1,3.7,3.5,7.2c2.6-3.4,5.1-6.7,7.8-9.8s6.3-7.4,11.1-12.6c0.6-0.7,1.7-1.9,3.3-3.7c1.6-1.8,3.5-3.8,5.6-5.9
	c2.1-2.1,4.1-4.1,6.2-5.9c2-1.8,3.7-2.9,5.1-3.4c0.6-0.2,1.7,0.1,3.5,1c1.7,0.9,2.6,2,2.6,3.2c0,0.7-0.3,1.3-0.9,1.9
	c-0.7,0.8-1.9,2-3.6,3.7c-1.7,1.6-3.6,3.4-5.7,5.2s-4,3.6-5.8,5.1c-1.8,1.6-3.1,2.8-3.7,3.7c-9.8,10.3-18.1,20.2-25.1,29.6
	S155.6,87,153.3,94.2c-0.6,1.7-0.9,3-0.9,3.7c0,1,0.3,1.6,0.9,1.6c0.5,0,1-0.3,1.7-0.8c0.7-0.5,1.5-1.1,2.4-1.8
	c1.9-1.5,4-3.4,6.4-5.6c2.4-2.2,4.7-4.5,7.1-6.8s4.4-4.4,6.2-6.4c1.8-1.9,3.1-3.3,3.7-4.1c0.2-0.2,0.5-0.5,0.8-0.8
	c0.3-0.3,0.6-0.4,1-0.4c0.8,0,1.2,0.4,1.2,1.2c0,0.5-0.9,1.8-2.8,4.1c-1.9,2.3-4.2,4.9-7,7.8c-2.8,3-5.6,5.9-8.5,8.7
	c-2.9,2.8-5.4,5.2-7.6,7.1C155.7,103.7,154.4,104.7,153.8,104.7L153.8,104.7z M128.7,96.8c0.5,0,1-0.3,1.6-0.9
	c5.9-5.1,11.6-10.7,17-16.7s10.5-12.2,15.2-18.5c-0.6-1.2-1.4-2.1-2.4-2.9c-1-0.8-2.1-1.1-3.4-1.1c-2.3,0-4.9,1-7.6,3
	c-2.7,2-5.2,4.2-7.6,6.7c-2.3,2.5-4.2,4.6-5.6,6.2c-2.1,2.6-4.1,5.8-6,9.8s-2.9,7.7-2.9,11.1C127.1,95.7,127.7,96.8,128.7,96.8
	L128.7,96.8z"/>
<path class="st0" d="M196.5,105.2c-1.9,0-3.8-1-5.8-2.9c-2-1.9-3.1-3.8-3.1-5.7c0-2.3,0.8-5,2.4-7.9c1.6-3,3.5-5.8,5.8-8.6
	c2.2-2.8,4.1-5.2,5.8-7.2c1.6-2,2.4-3.4,2.4-4.1v-0.3c-1-0.9-2-1.8-3-2.7c-0.9-0.9-2.2-1.3-3.8-1.3c-1.2,0-2.6,0.7-4.4,2.1
	s-3.6,3-5.5,4.9s-3.5,3.6-5.1,5.2c-1.5,1.6-2.6,2.7-3.3,3.3c-0.5,0.5-0.9,0.8-1.3,0.9c-0.4,0.1-0.7,0.2-1,0.2
	c-0.5,0-0.7-0.2-0.7-0.7s0.2-0.9,0.7-1.4c1.9-2.4,4-4.9,6.4-7.5c2.4-2.6,4.6-4.9,6.6-7.1c2-2.2,3.1-3.7,3.5-4.6
	c0.9-2.7,1.9-5,2.9-7.1s2.6-4.1,4.8-5.9c0.9-0.9,2-1.7,3.3-2.3c1.3-0.6,2.6-0.9,3.8-0.9c1.2,0,2.1,0.3,2.9,1s1.1,1.6,1.1,2.9
	c0,1.4-0.6,2.8-1.8,4.2s-2.6,2.7-4.3,3.9s-3.1,2.3-4.3,3.2s-1.8,1.7-1.7,2.3c0.7,0.5,2.1,1,4.1,1.7s3.4,1,4.3,1
	c0.9,0,1.8-0.2,2.6-0.5c0.8-0.3,1.6-0.5,2.4-0.5c1.2,0,2.3,0.3,3.5,1c1.2,0.7,1.7,1.7,1.7,3.1c0,1.2-0.4,2.2-1.3,3.2
	c-0.9,1-1.8,1.8-2.7,2.5c-1.4,1-3.2,2.6-5.6,4.7s-4.7,4.4-7.1,7c-2.4,2.6-4.4,5.1-6.1,7.6c-1.7,2.5-2.5,4.7-2.5,6.5
	c0,0.5,0.1,0.9,0.4,1.4c0.1,0.1,0.4,0.2,0.7,0.2c2.3,0,4.9-1,7.8-3.1c2.9-2.1,5.8-4.6,8.8-7.7c3-3,5.8-6,8.4-9s4.9-5.2,6.7-6.9
	c0.2-0.2,0.5-0.5,0.9-0.7c0.4-0.2,0.7-0.3,1-0.3c0.6,0,0.9,0.4,0.9,1.2c0,0.5-0.8,1.6-2.4,3.5c-1.6,1.9-3.6,4.1-6,6.6
	c-2.4,2.6-5,5.2-7.6,7.8c-2.6,2.7-5,5-7.2,7.1c-2.2,2-3.8,3.5-4.7,4.3c-1.3,1-2.2,1.7-2.8,2C197.6,105.1,197,105.2,196.5,105.2
	L196.5,105.2z"/>
<path class="st0" d="M253.1,104.7c-1,0-2.2-0.5-3.6-1.4c-1.3-0.9-2.5-2-3.4-3.2s-1.4-2.3-1.4-3.4c0-1.7,0.6-4.1,1.9-7.1
	s2.8-5.9,4.4-8.8c1.7-2.9,3-5.1,3.9-6.4c-1.6,1.4-3.7,3.6-6.2,6.7c-2.5,3.1-5.2,6.3-8,9.8c-2.9,3.4-5.6,6.4-8.2,8.8
	s-4.9,3.7-6.7,3.7c-2.6,0-4.6-0.9-6.2-2.7c-1.6-1.8-2.4-4-2.4-6.5c0-3.5,1-7.2,3-11.2c2-4,4.6-7.9,7.8-11.7
	c3.2-3.8,6.7-7.2,10.4-10.4c3.8-3.1,7.5-5.6,11.1-7.5c3.7-1.9,6.9-2.8,9.8-2.8c3.1,0,5.7,0.7,7.7,2.2s3,3.6,3,6.5
	c0,0.5-0.1,1.3-0.3,2.6c-0.2,1.3-0.6,1.9-1.3,1.9c-0.4,0-0.9-0.5-1.6-1.6c-0.8-1-1.8-2.1-3-3.1c-1.3-1-2.9-1.6-4.9-1.6
	c-3.2,0-6.6,1.2-10.2,3.6c-3.5,2.4-6.9,5.4-10.2,9.1c-3.2,3.7-6.1,7.4-8.5,11.2c-2.4,3.8-4.3,7.1-5.6,9.9c-0.4,0.8-0.7,1.7-1,2.6
	c-0.3,0.9-0.4,1.9-0.4,2.8c0,1,0.3,1.6,0.9,1.6s1.8-0.6,3.7-1.9c1.9-1.3,3.3-2.2,4.1-2.8c4.1-2.9,7.9-6.2,11.6-9.9
	c3.7-3.7,6.9-7.6,9.8-11.5c0.9-1.3,1.8-2.6,2.6-3.8s1.6-2.5,2.4-3.7c0.6-0.8,1.2-1.2,1.7-1.2c1.3,0,2.5,0.9,3.8,2.6s1.8,3.2,1.8,4.5
	c0,0.6-0.1,0.9-0.3,1c-0.2,0.1-0.5,0.5-1.1,1c-1.7,1.7-3.5,4.2-5.1,7.3c-1.7,3.1-3.1,6.3-4.4,9.5c-1.2,3.2-2.1,5.9-2.7,8.1
	c-0.1,0.3-0.2,0.8-0.3,1.3c-0.1,0.5,0.2,0.7,0.8,0.6c1.2-0.3,3.1-1.7,5.7-3.9c2.6-2.3,5.5-4.9,8.5-7.8c3.1-3,5.9-5.7,8.4-8.3
	s4.1-4.3,5-5.4c0.2-0.2,0.5-0.5,0.8-0.8s0.6-0.4,1-0.4c0.8,0,1.2,0.4,1.2,1.2c0,0.5-0.9,1.8-2.8,4.1c-1.9,2.3-4.2,4.9-7,7.8
	s-5.6,5.9-8.5,8.7s-5.4,5.2-7.6,7.1C255,103.7,253.6,104.7,253.1,104.7L253.1,104.7z"/>
</svg>
